<svg xmlns="http://www.w3.org/2000/svg" viewBox="0 0 32 32">
  <defs>
    <linearGradient id="mgGradient" x1="0%" y1="0%" x2="100%" y2="100%">
      <stop offset="0%" style="stop-color:#1a365d;stop-opacity:1" />
      <stop offset="100%" style="stop-color:#2c5282;stop-opacity:1" />
    </linearGradient>
  </defs>
  
  <!-- Background circle -->
  <circle cx="16" cy="16" r="15" fill="url(#mgGradient)" stroke="#e2e8f0" stroke-width="1"/>
  
  <!-- M shape - left part -->
  <path d="M 6 10 L 6 22 L 8.5 22 L 8.5 14 L 12 18 L 15.5 14 L 15.5 22 L 18 22 L 18 10 L 15 10 L 12 14.5 L 9 10 Z" fill="white"/>
  
  <!-- G shape - right part with internal shape -->
  <path d="M 20 10 C 18 10 16.5 11.5 16.5 13.5 L 16.5 18.5 C 16.5 20.5 18 22 20 22 L 24 22 C 26 22 27.5 20.5 27.5 18.5 L 27.5 16 L 23 16 L 23 18 L 25 18 L 25 18.5 C 25 19.3 24.3 20 23.5 20 L 20.5 20 C 19.7 20 19 19.3 19 18.5 L 19 13.5 C 19 12.7 19.7 12 20.5 12 L 23.5 12 C 24.3 12 25 12.7 25 13.5 L 27.5 13.5 C 27.5 11.5 26 10 24 10 Z" fill="white"/>
</svg>